# xmcd
#
# Track frame offsets:
#	150
#	12870
#	25455
#	37915
#	47817
#	58540
#	70060
#	81330
#	92145
#	103047
#	115612
#	127815
#	138757
#	149805
#	159105
#	167417
#	176135
#	185170
#	198205
#	207172
#	218100
#	228622
#	241890
#	255755
#	268700
#	281052
#
# Disc length: 3915 seconds
#
# Revision: 1
# Processed by: cddbd v1.5.2PL0 Copyright (c) Steve Scherf et al.
# Submitted via: audiograbber 1.83.01
#
DISCID=6b0f491a
DTITLE=Eddie Cletro - Flying Saucer Boogie
DYEAR=1900
DGENRE=
TTITLE0=First Class Second Hand Woman
TTITLE1=Flying Saucer Boogie
TTITLE2=No Time For Lovin'
TTITLE3=Lonesome Train Boogie
TTITLE4=Don't Talk About Me
TTITLE5=Single Again
TTITLE6=The Old Brown Jug
TTITLE7=Stallin' For Time
TTITLE8=No Time For Lovin'
TTITLE9=Springtime In The Rockies
TTITLE10=Love's More Than Gold
TTITLE11=Stallin' For Time
TTITLE12=Daniel Boone
TTITLE13=Sittin' And A-Rockin
TTITLE14=Santa Claus, Jr
TTITLE15=Give Me An Old Fashioned Christmas
TTITLE16=Rock'n'Roll Cowboy
TTITLE17=Banks Of Ole Rio Grande
TTITLE18=I'm Gonna BeLoved Tonight
TTITLE19=Wild Wild Young Men
TTITLE20=When The Sun Goes Down
TTITLE21=Hey Little Dreamboat
TTITLE22=Now Is The Hour
TTITLE23=The Nigh-In-Gale Song
TTITLE24=Don't Talk About Me
TTITLE25=Let The Rest Of The World Go Away
EXTD=
EXTT0=
EXTT1=
EXTT2=
EXTT3=
EXTT4=
EXTT5=
EXTT6=
EXTT7=
EXTT8=
EXTT9=
EXTT10=
EXTT11=
EXTT12=
EXTT13=
EXTT14=
EXTT15=
EXTT16=
EXTT17=
EXTT18=
EXTT19=
EXTT20=
EXTT21=
EXTT22=
EXTT23=
EXTT24=
EXTT25=
PLAYORDER=
